@startuml
'https://plantuml.com/class-diagram
class TeamMember {
  - memberId : String
  - name : String
  - email : String
  - phoneNumber : String
  - location : String
  + getName() : String
  + getEmail() : String
  + getPhoneNumber() : String
  + getLocation() : String
}


abstract class AbstractList
abstract AbstractCollection
interface List
interface Collection

List <|-- AbstractList
Collection <|-- AbstractCollection

Collection <|- List
AbstractCollection <|- AbstractList
AbstractList <|-- ArrayList

class ArrayList {
Object[] elementData
size()
}

enum TimeUnit {
DAYS
HOURS
MINUTES
}

@enduml